<?xml version="1.0" encoding="UTF-8"?>
<svg width="199px" height="217px" viewBox="0 0 199 217" xmlns="http://www.w3.org/2000/svg" xmlns:xlink="http://www.w3.org/1999/xlink" version="1.1">
 <!-- Generated by Pixelmator Pro 2.2 -->
 <g id="New-Group">
  <path id="Elipse-copiar-2" d="M172 161 C172 153.82 166.18 148 159 148 151.82 148 146 153.82 146 161 146 168.18 151.82 174 159 174 166.18 174 172 168.18 172 161 Z" fill="#000000" fill-opacity="1" stroke="none"/>
  <path id="Elipse-copiar" d="M112 161 C112 153.82 106.18 148 99 148 91.82 148 86 153.82 86 161 86 168.18 91.82 174 99 174 106.18 174 112 168.18 112 161 Z" fill="#000000" fill-opacity="1" stroke="none"/>
  <path id="Elipse-copiar-1" d="M52 161 C52 153.82 46.18 148 39 148 31.82 148 26 153.82 26 161 26 168.18 31.82 174 39 174 46.18 174 52 168.18 52 161 Z" fill="#000000" fill-opacity="1" stroke="none"/>
 </g>
</svg>
