<?xml version="1.0" encoding="UTF-8"?>
<svg width="199px" height="217px" viewBox="0 0 199 217" xmlns="http://www.w3.org/2000/svg" xmlns:xlink="http://www.w3.org/1999/xlink" version="1.1">
 <!-- Generated by Pixelmator Pro 2.2 -->
 <path id="Retângulo" d="M48 125 L150 125 150 111 48 111 Z" fill="#000000" fill-opacity="1" stroke="none"/>
 <path id="Elipse-copiar-1" d="M112 159 C112 151.82 106.18 146 99 146 91.82 146 86 151.82 86 159 86 166.18 91.82 172 99 172 106.18 172 112 166.18 112 159 Z" fill="#000000" fill-opacity="1" stroke="none"/>
 <path id="Elipse-copiar" d="M112 77 C112 69.82 106.18 64 99 64 91.82 64 86 69.82 86 77 86 84.18 91.82 90 99 90 106.18 90 112 84.18 112 77 Z" fill="#000000" fill-opacity="1" stroke="none"/>
</svg>
