<?xml version="1.0" encoding="UTF-8"?>
<svg width="399px" height="217px" viewBox="0 0 399 217" xmlns="http://www.w3.org/2000/svg" xmlns:xlink="http://www.w3.org/1999/xlink" version="1.1">
 <!-- Generated by Pixelmator Pro 2.2 -->
 <g id="New-Group-copiar">
  <path id="Elipse-copiar-2" d="M272 161 C272 153.82 266.18 148 259 148 251.82 148 246 153.82 246 161 246 168.18 251.82 174 259 174 266.18 174 272 168.18 272 161 Z" fill="#000000" fill-opacity="1" stroke="none"/>
  <path id="Elipse-copiar" d="M212 161 C212 153.82 206.18 148 199 148 191.82 148 186 153.82 186 161 186 168.18 191.82 174 199 174 206.18 174 212 168.18 212 161 Z" fill="#000000" fill-opacity="1" stroke="none"/>
  <path id="Elipse-copiar-1" d="M152 161 C152 153.82 146.18 148 139 148 131.82 148 126 153.82 126 161 126 168.18 131.82 174 139 174 146.18 174 152 168.18 152 161 Z" fill="#000000" fill-opacity="1" stroke="none"/>
 </g>
</svg>
